<?xml version="1.0" standalone="no"?>
<!DOCTYPE svg PUBLIC "-//W3C//DTD SVG 20010904//EN"
 "http://www.w3.org/TR/2001/REC-SVG-20010904/DTD/svg10.dtd">
<svg version="1.0" xmlns="http://www.w3.org/2000/svg"
 width="1024.000000pt" height="1024.000000pt" viewBox="0 0 1024.000000 1024.000000"
 preserveAspectRatio="xMidYMid meet">
<metadata>
Created by potrace 1.11, written by Peter Selinger 2001-2013
</metadata>
<g transform="translate(0.000000,1024.000000) scale(0.100000,-0.100000)"
fill="#000000" stroke="none">
<path d="M2070 10225 c-36 -8 -75 -16 -86 -19 -39 -8 -158 -58 -214 -89 -96
-53 -167 -112 -264 -219 -64 -71 -131 -188 -170 -296 -60 -168 -56 148 -55
-4496 1 -4081 1 -4254 19 -4336 28 -130 64 -218 136 -330 23 -36 51 -76 63
-90 40 -47 135 -140 142 -140 4 0 14 -6 22 -14 38 -39 192 -122 260 -141 4 -2
8 -3 10 -5 3 -3 25 -8 117 -30 84 -19 131 -19 3060 -19 2575 0 2985 2 3050 14
41 8 84 17 95 19 11 2 21 5 23 6 1 1 7 4 12 5 6 1 12 4 15 5 3 1 8 3 13 5 37
10 156 68 160 77 2 5 8 8 14 8 39 0 236 182 295 272 15 23 31 45 34 48 10 8
76 152 88 195 16 52 20 65 22 68 1 1 7 34 15 72 11 58 13 655 13 3490 0 3368
0 3421 -19 3505 -29 125 -29 123 -39 145 -73 160 -110 221 -181 298 -142 156
-1784 1786 -1835 1822 -109 78 -235 135 -355 161 -19 4 -42 10 -50 13 -8 3
-989 6 -2180 7 -1794 2 -2176 0 -2230 -11z m300 -945 c6 3 33 3 60 0 28 -4 50
-4 50 -1 0 3 40 6 90 6 49 0 90 -4 90 -8 0 -5 4 -6 8 -3 11 6 74 8 190 4 50
-2 92 -1 92 2 0 5 65 5 120 0 14 -1 30 -1 35 0 6 1 62 1 125 0 63 -1 122 -1
130 -1 8 0 35 0 60 0 25 0 50 0 55 0 90 3 136 3 140 -1 2 -2 31 -1 65 2 33 3
60 3 60 0 0 -3 30 -3 68 0 37 3 89 3 115 0 26 -4 50 -4 52 -2 4 4 107 5 123 1
4 -1 11 0 17 1 5 1 29 1 52 0 24 0 51 -1 61 -1 9 1 55 0 102 0 101 0 91 0 183
1 41 1 78 0 83 -1 5 -1 12 -1 17 0 4 1 32 2 62 2 30 0 58 -1 63 -2 4 -1 11 0
17 1 5 1 29 1 52 0 24 0 50 -1 58 -1 8 0 45 1 83 1 37 0 108 1 157 1 50 0 97
1 105 0 8 0 42 0 75 0 33 0 67 0 75 0 8 -1 29 -1 47 -1 33 -1 51 -14 33 -25
-6 -4 -7 -12 -1 -24 5 -9 6 -23 1 -31 -4 -7 -4 -24 1 -37 5 -15 5 -23 -2 -23
-6 0 -7 -5 -3 -11 7 -12 8 -189 0 -196 -3 -3 -1 -13 4 -22 5 -10 5 -23 0 -31
-5 -8 -5 -21 0 -30 5 -9 5 -22 0 -29 -4 -8 -4 -27 0 -42 5 -16 5 -29 0 -29 -5
0 -5 -13 0 -30 5 -17 5 -30 0 -30 -5 0 -5 -13 0 -30 5 -17 5 -30 0 -30 -5 0
-5 -13 0 -30 5 -17 5 -30 0 -30 -5 0 -5 -13 0 -30 5 -16 6 -30 2 -30 -4 0 -7
-16 -7 -35 0 -19 3 -35 7 -35 4 0 3 -13 -2 -30 -5 -16 -6 -30 -2 -30 8 0 6
-86 -3 -99 -3 -5 -1 -12 4 -15 6 -4 6 -18 1 -36 -5 -16 -5 -32 0 -35 5 -3 5
-19 0 -35 -5 -17 -5 -32 0 -35 5 -3 6 -15 0 -29 -4 -12 -4 -29 0 -36 5 -8 6
-18 3 -23 -8 -13 -9 -77 -1 -90 3 -6 3 -18 -2 -27 -5 -9 -5 -22 0 -30 5 -8 5
-21 0 -30 -5 -9 -5 -22 0 -30 5 -8 5 -21 0 -30 -5 -9 -5 -22 0 -30 5 -8 5 -21
0 -30 -5 -9 -5 -22 0 -30 5 -8 5 -21 0 -30 -5 -9 -5 -22 0 -30 5 -8 5 -21 0
-30 -5 -9 -5 -22 0 -30 5 -8 5 -21 0 -30 -5 -9 -5 -22 0 -30 5 -8 5 -21 0 -30
-5 -9 -5 -22 0 -30 5 -8 5 -21 0 -30 -5 -9 -5 -22 -1 -28 4 -7 5 -33 1 -57 -4
-25 -4 -45 -1 -45 7 0 4 -108 -4 -127 -2 -7 -1 -13 3 -13 4 0 7 -10 8 -22 5
-161 150 -347 309 -398 22 -7 47 -15 55 -19 8 -3 43 -6 77 -6 35 0 63 -3 63
-7 0 -4 13 -3 29 2 16 4 31 6 33 4 8 -7 86 -10 104 -3 11 3 28 3 40 -1 11 -5
27 -5 34 0 7 4 25 4 40 0 15 -4 33 -4 40 0 7 4 26 4 41 0 16 -5 31 -5 34 0 3
4 20 5 38 1 18 -5 41 -5 52 -1 11 4 29 4 41 0 11 -5 27 -5 34 0 7 4 25 4 40 0
15 -4 33 -4 40 0 7 4 25 4 41 0 15 -5 30 -6 33 -3 7 8 145 8 152 0 3 -3 16 -2
28 3 13 4 29 4 36 0 8 -5 21 -5 29 -1 8 5 27 5 43 1 15 -5 28 -6 28 -2 0 8
188 7 196 -1 3 -3 16 -2 28 3 13 4 29 5 36 0 7 -4 25 -4 41 0 15 5 29 6 32 4
8 -8 63 -11 82 -4 11 4 29 4 41 0 11 -5 27 -5 34 0 7 4 25 4 40 0 15 -4 33 -4
40 0 7 4 25 4 41 0 15 -5 30 -6 33 -3 8 8 206 9 206 1 0 -4 13 -3 30 2 17 5
32 5 35 0 3 -5 15 -6 26 -1 12 4 34 5 49 3 27 -4 27 -5 29 -85 3 -100 3 -97 1
-122 -1 -11 -2 -45 -1 -75 0 -30 0 -62 0 -70 0 -8 0 -37 0 -65 0 -27 0 -59 0
-70 0 -11 0 -74 0 -140 0 -66 0 -124 -1 -130 0 -5 0 -30 1 -55 1 -25 2 -94 2
-155 0 -60 0 -117 1 -125 0 -8 0 -33 -1 -55 -2 -52 -3 -156 -2 -175 0 -8 0
-37 0 -65 -1 -27 -1 -57 0 -65 0 -8 0 -64 0 -125 0 -60 0 -117 0 -125 1 -8 0
-35 0 -60 0 -25 -1 -52 0 -60 0 -8 0 -40 0 -70 -1 -63 -1 -68 1 -95 1 -11 1
-58 1 -105 -1 -185 -1 -217 0 -280 0 -36 0 -72 0 -80 0 -12 0 -87 0 -285 0 -5
0 -19 -1 -30 -1 -11 -2 -45 -1 -75 0 -30 0 -62 0 -70 0 -8 0 -37 0 -65 0 -27
0 -59 0 -70 0 -11 0 -74 0 -140 0 -66 0 -124 -1 -130 0 -5 0 -30 1 -55 1 -25
2 -94 2 -155 0 -60 0 -117 1 -125 0 -8 0 -33 -1 -55 -2 -52 -3 -156 -2 -175 0
-8 0 -37 0 -65 -1 -27 -1 -57 0 -65 0 -8 0 -64 0 -125 0 -60 0 -117 0 -125 1
-8 0 -35 0 -60 0 -25 -1 -52 0 -60 0 -8 0 -40 0 -70 -1 -63 -1 -68 1 -95 1
-11 1 -58 1 -105 -1 -185 -1 -217 0 -280 0 -36 0 -72 0 -80 0 -12 0 -87 0
-285 0 -5 0 -19 -1 -30 -1 -11 -1 -60 0 -108 0 -48 -2 -92 -5 -97 -4 -6 -2
-10 2 -10 5 0 6 -27 3 -60 -3 -33 -3 -60 0 -60 3 0 3 -23 2 -50 l-4 -50 -41 0
c-23 0 -49 0 -57 -1 -8 0 -60 0 -115 0 -55 0 -107 0 -115 0 -8 0 -46 0 -85 0
-103 1 -105 1 -170 0 -33 0 -64 -1 -70 0 -21 0 -431 0 -445 0 -8 -1 -33 -1
-55 0 -42 2 -240 3 -265 2 -23 -1 -76 -1 -183 2 -53 1 -97 -2 -97 -6 0 -5 -4
-5 -10 -2 -7 4 -177 7 -352 4 -10 0 -47 0 -83 0 -36 0 -77 0 -92 -1 -16 0 -59
0 -98 1 -100 1 -104 1 -170 0 -33 0 -67 -1 -75 0 -8 0 -116 0 -240 0 -124 0
-229 0 -235 0 -28 0 -233 0 -250 0 -11 0 -101 0 -200 0 -99 0 -184 0 -190 0
-5 0 -59 0 -120 0 -60 0 -119 0 -130 0 -32 0 -219 0 -230 0 -5 -1 -41 0 -80 0
-103 1 -105 1 -170 0 -33 0 -64 -1 -70 0 -21 0 -431 0 -445 0 -8 -1 -33 -1
-55 0 -42 2 -240 3 -265 2 -23 -1 -76 -1 -183 2 -53 1 -97 -2 -97 -6 0 -5 -4
-6 -9 -2 -5 3 -55 6 -110 7 l-101 1 0 41 c0 23 -1 48 -1 56 0 8 0 35 0 60 0
25 1 52 0 60 0 8 0 69 0 135 0 144 0 138 0 200 0 28 0 57 0 65 0 8 0 35 0 60
0 25 0 52 0 60 -1 8 0 35 0 60 0 25 1 52 0 60 0 8 0 69 0 135 0 66 0 127 -1
135 0 8 1 31 1 50 2 32 3 125 2 160 0 8 0 38 0 65 0 28 0 55 0 60 0 6 0 53 -1
105 0 52 0 124 -1 160 0 36 0 72 0 80 0 12 0 87 0 285 0 6 0 19 1 30 1 11 2
45 1 75 0 30 0 62 0 70 0 8 0 38 0 65 0 28 0 59 0 70 0 11 0 74 0 140 0 66 0
125 1 130 0 6 0 30 -1 55 -1 25 -2 95 -2 155 0 61 0 117 0 125 0 8 0 38 0 65
0 28 0 57 0 65 -1 8 -1 38 0 65 0 28 1 59 0 70 0 19 0 84 1 245 0 36 0 94 -1
130 0 36 0 72 0 80 0 12 0 87 0 285 0 6 0 19 1 30 1 11 2 45 1 75 0 30 0 62 0
70 0 8 0 38 0 65 0 28 0 59 0 70 0 11 0 74 0 140 0 66 0 125 1 130 0 6 0 30
-1 55 -1 25 -2 95 -2 155 0 61 0 117 0 125 0 8 0 38 0 65 0 28 0 57 0 65 -1 8
-1 38 0 65 0 28 1 59 0 70 0 19 0 84 1 245 0 36 0 94 -1 130 0 36 0 72 0 80 0
12 0 87 0 285 0 6 0 19 1 30 1 11 2 45 1 75 0 30 0 62 0 70 0 8 0 38 0 65 0
28 0 59 0 70 0 11 0 74 0 140 0 66 0 125 1 130 0 6 0 30 -1 55 -1 37 -3 287
-2 325 0 20 0 110 0 125 0 8 0 35 0 60 0 25 0 52 0 60 -1 8 0 35 0 60 0 25 1
52 0 60 0 8 0 69 0 135 0 144 0 138 0 200 0 28 0 57 0 65 0 8 0 35 0 60 0 25
0 52 0 60 -1 8 0 35 0 60 0 25 1 52 0 60 -3 84 1 353 6 358 2 2 0 15 -6 28 -7
21 -5 26 12 33 12 4 41 4 65 1 24 -4 48 -4 54 0z m5550 -1604 c0 -4 -5 -4 -11
0 -6 4 -34 6 -63 5 -28 0 -71 -1 -96 0 -55 1 -86 0 -145 -1 -24 -1 -49 1 -54
4 -5 4 -12 2 -15 -3 -4 -6 -18 -6 -35 -1 -15 4 -34 4 -41 0 -7 -5 -23 -5 -34
0 -12 4 -31 4 -43 -1 -12 -4 -25 -4 -27 0 -3 5 -20 5 -38 2 -18 -4 -48 -4 -66
0 -17 4 -34 3 -37 -1 -3 -5 -18 -5 -34 0 -15 4 -34 4 -41 0 -7 -5 -23 -5 -34
0 -12 4 -31 4 -43 -1 -12 -4 -25 -4 -28 0 -3 5 -20 6 -37 2 -18 -4 -48 -4 -66
0 -18 3 -35 3 -37 -1 -3 -5 -18 -5 -34 0 -15 4 -34 4 -41 0 -7 -5 -23 -5 -34
0 -12 4 -31 4 -43 -1 -12 -4 -25 -4 -27 0 -3 5 -20 5 -38 2 -18 -4 -48 -4 -66
0 -17 4 -34 3 -37 -1 -3 -5 -18 -5 -34 0 -15 4 -34 4 -42 0 -7 -5 -20 -5 -28
-1 -8 5 -27 5 -43 0 -21 -6 -28 -5 -25 4 2 7 0 22 -4 34 -5 13 -4 25 1 28 6 4
7 13 1 24 -6 10 -6 23 -1 31 5 8 5 21 0 30 -5 9 -5 22 0 30 5 8 5 21 0 30 -5
9 -5 22 0 30 5 8 5 21 0 30 -5 9 -5 22 0 30 5 8 5 21 0 30 -5 9 -5 22 0 30 5
8 5 21 0 30 -5 9 -5 22 0 30 5 8 5 21 0 30 -5 9 -5 22 0 30 5 8 5 21 0 30 -5
9 -5 22 0 30 5 8 5 21 0 30 -5 9 -5 22 0 30 5 8 5 21 0 30 -5 9 -5 22 0 30 5
8 5 21 0 30 -5 9 -5 22 0 30 5 8 5 21 0 30 -5 9 -5 22 0 30 5 8 5 21 0 30 -5
9 -5 22 0 30 5 8 5 21 0 30 -5 9 -5 22 0 30 5 8 5 21 0 29 -4 9 -4 23 0 31 5
9 5 22 0 30 -5 8 -5 21 0 30 5 9 5 22 0 30 -5 8 -5 21 0 30 5 9 5 22 0 30 -5
8 -5 21 0 30 5 9 5 22 0 30 -5 8 -5 21 0 30 5 9 5 22 1 29 -5 7 -5 28 -1 47 4
19 4 36 -1 39 -4 3 -4 16 1 29 4 12 4 29 0 36 -5 8 -6 18 -3 23 8 13 11 57 3
57 -3 0 -5 14 -2 30 4 29 38 -3 763 -728 418 -418 759 -763 759 -766z"/>
<path d="M3477 5523 c-1 0 -26 -4 -55 -7 -29 -3 -62 -11 -73 -16 -10 -6 -19
-8 -19 -5 0 6 -34 -22 -67 -55 -49 -49 -69 -126 -62 -240 1 -24 0 -172 -2
-205 0 -16 -1 -37 0 -45 1 -29 1 -139 0 -147 -1 -4 -1 -10 0 -13 1 -3 3 -34 5
-70 6 -101 36 -154 116 -205 33 -21 59 -29 102 -31 31 -1 61 -5 66 -7 4 -3 14
-2 22 3 7 4 24 4 36 0 13 -5 26 -5 29 -1 3 5 20 6 37 2 18 -4 47 -4 63 -1 17
4 39 3 51 -1 11 -4 27 -4 34 1 7 4 24 4 39 0 14 -4 35 -4 46 0 11 4 32 4 48
-1 15 -4 27 -5 27 -1 0 4 16 7 35 7 19 0 35 -3 35 -7 0 -4 13 -3 30 2 17 5 32
5 35 0 3 -5 15 -6 28 -1 12 5 32 5 44 0 12 -4 25 -4 28 1 3 5 18 5 35 0 17 -5
30 -6 30 -2 0 8 68 7 76 -1 3 -3 16 -2 28 2 11 5 30 5 41 1 11 -4 32 -4 47 1
15 4 30 4 33 -1 3 -5 18 -5 33 -1 15 5 37 5 49 0 12 -4 25 -4 28 0 3 5 20 6
37 2 18 -4 48 -4 66 0 17 3 32 3 32 -2 0 -4 12 -4 28 0 15 5 37 5 49 0 12 -4
25 -4 28 0 3 5 20 6 37 2 18 -4 48 -4 66 0 17 3 32 3 32 -2 0 -4 12 -4 28 0
15 5 37 5 48 1 11 -5 27 -5 34 0 7 4 24 5 39 1 14 -4 35 -6 46 -5 11 1 31 3
45 3 14 0 36 1 50 1 14 1 32 1 40 1 8 -1 29 -1 45 0 17 0 37 0 45 -1 8 0 24 0
35 0 11 1 27 1 35 1 8 -1 29 -1 45 0 17 0 37 0 45 -1 8 0 24 0 35 0 11 1 27 1
35 1 8 -1 29 -1 45 0 17 0 36 0 43 0 25 -2 43 -1 101 0 33 1 64 -1 69 -5 6 -3
13 -2 16 3 4 6 18 6 36 1 17 -5 30 -5 30 0 0 4 15 5 33 1 17 -4 47 -4 65 0 18
3 35 3 38 -2 2 -4 15 -4 28 1 12 4 29 4 36 0 8 -5 21 -5 29 -1 9 4 30 5 46 1
17 -3 45 -3 63 1 17 4 34 3 37 -2 3 -4 16 -4 29 1 12 4 29 4 36 0 8 -5 21 -5
29 -1 9 4 30 5 46 1 17 -3 45 -3 63 1 17 4 34 3 37 -2 3 -4 16 -4 29 1 12 4
29 4 36 0 8 -5 21 -5 29 -1 9 4 30 5 46 1 17 -3 45 -3 63 1 17 4 35 3 38 -2 3
-5 9 -7 12 -5 4 2 27 7 51 11 100 15 186 104 197 204 4 28 5 158 3 216 -1 6 0
30 0 55 0 25 1 52 0 60 0 8 0 67 0 130 1 63 -1 134 -3 158 -5 45 -26 102 -38
102 -5 0 -8 6 -8 14 0 8 -13 23 -30 33 -16 9 -30 20 -30 24 0 12 -52 29 -111
35 -94 9 -179 10 -179 1 0 -5 -5 -5 -11 -1 -14 8 -196 7 -210 -1 -5 -4 -9 -3
-9 2 0 4 -27 8 -60 8 -33 0 -60 -2 -60 -5 0 -3 -21 -4 -47 -2 -58 3 -195 4
-208 1 -6 -1 -14 0 -20 1 -10 2 -128 1 -143 -1 -4 -1 -11 0 -17 1 -21 4 -228
0 -236 -6 -5 -3 -9 -2 -9 3 0 4 -27 8 -60 8 -33 0 -60 -3 -60 -6 0 -3 -20 -3
-45 1 -25 4 -48 4 -50 0 -3 -4 -19 -6 -37 -3 -52 6 -188 9 -188 3 0 -3 -29 -3
-65 0 -36 3 -65 2 -65 -3 0 -4 -5 -5 -11 -1 -14 8 -196 7 -210 -1 -5 -4 -9 -3
-9 2 0 4 -27 8 -60 8 -33 0 -60 -2 -60 -5 0 -3 -24 -4 -52 -2 -136 7 -238 6
-238 -1 0 -5 -5 -5 -11 -1 -14 8 -196 7 -210 -1 -5 -4 -9 -3 -9 2 0 4 -27 8
-60 8 -33 0 -60 -2 -60 -5 0 -3 -24 -4 -52 -2 -136 7 -238 6 -238 -1 0 -5 -5
-5 -11 -1 -14 8 -196 7 -210 -1 -5 -4 -9 -3 -9 2 0 6 -47 12 -53 6z"/>
<path d="M3458 3845 c-2 -2 -22 -5 -45 -9 -122 -16 -203 -103 -210 -226 -7
-107 -8 -190 -3 -190 3 0 3 -27 0 -60 -3 -33 -3 -60 0 -60 3 0 4 -33 2 -72 -4
-115 -3 -170 3 -218 6 -49 25 -100 37 -100 5 0 8 -5 8 -11 0 -12 52 -58 89
-77 14 -8 52 -16 85 -18 32 -1 60 -5 63 -8 2 -2 17 -1 31 3 15 4 39 4 54 0 16
-4 30 -3 33 1 3 5 18 5 33 2 15 -4 41 -6 57 -5 65 6 123 5 134 -1 6 -4 11 -2
11 4 0 6 5 8 11 5 10 -7 32 -7 155 -4 29 1 56 -1 61 -4 5 -3 15 -2 23 3 7 4
23 5 34 1 12 -4 32 -5 46 -1 14 4 35 3 47 -1 12 -5 25 -4 28 1 3 5 16 6 28 1
12 -4 36 -4 52 -1 17 3 40 3 52 -1 12 -5 25 -4 28 1 3 5 16 6 28 1 12 -4 33
-5 47 -1 14 4 37 3 52 -1 15 -4 30 -4 33 1 3 5 18 5 33 2 15 -4 41 -6 57 -5
65 6 123 5 134 -1 6 -4 11 -2 11 4 0 6 5 8 11 5 6 -4 32 -7 57 -6 26 0 71 1
100 1 53 0 72 0 95 0 6 0 30 0 52 0 22 0 63 0 91 1 29 1 57 -1 63 -5 6 -4 11
-2 11 4 0 6 5 8 11 5 13 -9 107 -10 115 -2 3 3 19 1 35 -3 16 -5 29 -6 29 -2
0 11 114 8 122 -3 5 -6 8 -5 8 3 0 7 5 10 11 7 6 -4 34 -7 62 -6 29 1 63 1 77
0 14 0 31 0 38 0 65 4 112 2 121 -3 6 -4 11 -2 11 4 0 6 5 8 11 5 13 -9 107
-10 115 -2 3 3 19 1 35 -3 16 -5 29 -6 29 -2 0 11 114 8 122 -3 5 -6 8 -5 8 3
0 7 5 10 11 7 6 -4 34 -7 62 -6 29 1 63 1 77 0 14 0 31 0 38 0 65 4 112 2 121
-3 6 -4 11 -2 11 4 0 6 5 8 11 5 10 -7 33 -7 144 -4 22 0 45 0 50 -1 6 -1 15
-1 20 0 6 1 24 3 40 4 17 2 43 8 58 14 16 7 30 12 33 12 10 0 74 55 74 63 0 5
9 21 20 37 16 23 35 108 32 145 -1 15 -4 300 -3 335 2 72 -1 202 -4 229 -14
105 -103 187 -215 197 -51 5 -120 7 -135 4 -5 -1 -14 -2 -19 -1 -4 1 -43 2
-85 1 -42 0 -85 0 -96 0 -31 0 -118 -1 -124 -2 -3 0 -9 0 -13 2 -18 4 -99 2
-104 -3 -3 -3 -17 -2 -32 2 -15 4 -44 4 -64 1 -21 -4 -40 -5 -42 -2 -7 7 -95
6 -102 -1 -3 -3 -17 -2 -32 2 -15 4 -44 4 -64 1 -21 -4 -40 -5 -42 -2 -7 7
-95 6 -102 -1 -3 -3 -17 -2 -32 2 -15 4 -44 4 -64 1 -21 -4 -40 -5 -42 -2 -7
7 -95 6 -102 -1 -3 -3 -17 -2 -32 2 -15 4 -44 4 -64 1 -21 -4 -40 -5 -43 -2
-5 5 -107 6 -131 1 -5 -1 -13 -1 -19 1 -11 2 -299 1 -312 -1 -4 -1 -11 -1 -15
1 -18 4 -99 2 -104 -3 -3 -3 -17 -2 -32 2 -15 4 -44 4 -64 1 -21 -4 -40 -5
-42 -2 -7 7 -95 6 -102 -1 -3 -3 -17 -2 -32 2 -15 4 -44 4 -64 1 -21 -4 -40
-5 -42 -2 -7 7 -95 6 -102 -1 -3 -3 -17 -2 -32 2 -15 4 -44 4 -64 1 -21 -4
-40 -5 -42 -2 -7 7 -95 6 -102 -1 -3 -3 -17 -2 -32 2 -15 4 -44 4 -64 1 -21
-4 -40 -5 -42 -2 -7 7 -95 6 -102 -1 -3 -3 -11 -4 -18 -1 -21 8 -126 9 -126 2
0 -4 -6 -5 -12 -3 -20 8 -158 11 -158 4 0 -4 -16 -3 -34 1 -19 4 -36 6 -38 5z"/>
</g>
</svg>
